<?xml version="1.0" encoding="UTF-8"?><svg id="uuid-1ffab922-2e1c-470b-99b4-c31cc2a242cd" xmlns="http://www.w3.org/2000/svg" viewBox="0 0 1924.83 1927.04"><defs><style>.uuid-74e8c322-4971-4a6f-9530-73ff8ed2662f{fill:#9affc1;}.uuid-de851005-f492-4c75-a77c-9fed5755691a{fill:#16222d;}</style></defs><rect class="uuid-de851005-f492-4c75-a77c-9fed5755691a" x="164.92" y="158.86" width="1611.46" height="1611.46" rx="360.85" ry="360.85"/><g><path class="uuid-74e8c322-4971-4a6f-9530-73ff8ed2662f" d="M770.57,845.17l195.68,175.98c11.8,12.7,23.68,25.32,35.15,38.32,73.67,81.24,144.1,165.53,206.52,255.48,28.88-19.63,55.16-42.77,78.32-68.75-84.43-79.3-165.48-162.2-226.96-261.02-79.24-118.17-115.41-248.95-44.72-381.74-47.02,134.62,.79,246.41,92.36,346.28,68.41,79.84,156.57,141.11,244.61,198.99,26.93-55.68,42.04-118.14,42.04-184.14,0-233.84-189.56-423.4-423.4-423.4-144.7,0-272.38,72.63-348.75,183.38,82.75,63.09,148.91,120.39,149.15,120.6"/><path class="uuid-74e8c322-4971-4a6f-9530-73ff8ed2662f" d="M1051.01,1221.75c-70.42-69.23-146.6-132.1-227.79-187.99-84.69-58.47-173.63-113.65-267.45-156.26-4.07,19.47-6.74,39.44-8.04,59.78,103.12,55.9,201.64,118.77,294.4,191.41,35,27.88,81.15,67.52,115.8,95.82,52.27,43.33,104.38,89.44,150.97,140.1,19.42-6.74,38.19-14.84,56.21-24.21-36.55-41.03-75-80.4-114.11-118.65"/><path class="uuid-74e8c322-4971-4a6f-9530-73ff8ed2662f" d="M845.86,1254.09c-19.86-12.26-42.01-24.39-62.68-35.07-65.25-33.48-133.31-62.86-202.68-88.61,64.52,151.42,214.68,257.58,389.67,257.58,24.34,0,48.17-2.17,71.39-6.11-62.03-46.8-129.67-87.5-195.7-127.79"/></g></svg>